<?xml version="1.0" encoding="utf-8"?>
<!-- Generator: Adobe Illustrator 25.0.1, SVG Export Plug-In . SVG Version: 6.00 Build 0)  -->
<svg version="1.1" id="Capa_1" xmlns="http://www.w3.org/2000/svg" xmlns:xlink="http://www.w3.org/1999/xlink" x="0px" y="0px"
	 viewBox="0 0 61 59" style="enable-background:new 0 0 61 59;" xml:space="preserve">
<style type="text/css">
	.st0{fill-rule:evenodd;clip-rule:evenodd;fill:#232f3b;}
</style>
<g id="Texto">
	<path class="st0" d="M11.3,52h38.9c1.5,0,2.8-1.7,2.8-3.7c0-2.1-1.2-3.7-2.8-3.7l0,0H11.3c-1.5,0-2.8,1.7-2.8,3.7
		C8.6,50.3,9.8,52,11.3,52z M11.3,33.3h38.9c1.5,0,2.8-1.7,2.8-3.7c0-2.1-1.2-3.7-2.8-3.7c0,0,0,0,0,0H11.3c-1.5,0-2.8,1.7-2.8,3.7
		C8.6,31.6,9.8,33.3,11.3,33.3z M11.3,14.5h38.9c1.5,0,2.8-1.7,2.8-3.7c0-2.1-1.2-3.7-2.8-3.7c0,0,0,0,0,0H11.3
		c-1.5-0.4-3,1-3.3,3.1c-0.3,2.1,0.7,4.1,2.3,4.4C10.6,14.6,11,14.6,11.3,14.5z"/>
</g>
</svg>
