<?xml version="1.0" encoding="utf-8"?>
<!-- Generator: Adobe Illustrator 25.0.1, SVG Export Plug-In . SVG Version: 6.00 Build 0)  -->
<svg version="1.1" id="Capa_1" xmlns="http://www.w3.org/2000/svg" xmlns:xlink="http://www.w3.org/1999/xlink" x="0px" y="0px"
	 viewBox="0 0 61 59" style="enable-background:new 0 0 61 59;" xml:space="preserve">
<style type="text/css">
	.st0{fill-rule:evenodd;clip-rule:evenodd;fill:#232f3b;}
</style>
<g id="Texto_1_">
	<path class="st0" d="M51.9,45.5l-16-16.1l15.9-15.9c1.3-1.6,1.1-4-0.4-5.3c-1.4-1.2-3.4-1.2-4.8,0L30.6,24.1L14.6,8.2
		c-1.4-1.5-3.8-1.5-5.3-0.1s-1.5,3.8-0.1,5.3c0.1,0.1,0.1,0.1,0.2,0.2l15.9,15.9L9.2,45.5c-1.5,1.4-1.6,3.8-0.2,5.3
		c1.4,1.5,3.8,1.6,5.3,0.2c0.1-0.1,0.1-0.1,0.2-0.2l16.1-16.1l16,16.1c1.5,1.5,3.9,1.5,5.3,0C53.4,49.3,53.4,47,51.9,45.5L51.9,45.5
		z"/>
</g>
</svg>
