<svg xmlns="http://www.w3.org/2000/svg" viewBox="0 0 332.28 33.25"><defs><style>.cls-1{fill:#24303c;}.cls-2{fill:#47b8ae;}</style></defs><g id="Capa_2" data-name="Capa 2"><g id="Capa_1-2" data-name="Capa 1"><path class="cls-1" d="M0,32.45V.5H21.4V6.34H6.16v6.71h9.67V18.9H6.16V32.45Z"/><path class="cls-1" d="M43.41,33a16.77,16.77,0,0,1-4.78-.66,12.56,12.56,0,0,1-4.08-2.1,9.5,9.5,0,0,1-2.94-4,15.59,15.59,0,0,1-1.08-6V.5H36.7V20.2q0,3.8,1.68,5.32a7.27,7.27,0,0,0,5,1.53,7.27,7.27,0,0,0,5-1.53c1.14-1,1.72-2.79,1.72-5.32V.5h6.19V20.2q0,6.61-3.65,9.7A13.82,13.82,0,0,1,43.41,33Z"/><path class="cls-1" d="M81.15,6.44v26H75v-26H65.86V.5H90.29V6.44Z"/><path class="cls-1" d="M112.74,33a16.75,16.75,0,0,1-4.77-.66,12.37,12.37,0,0,1-4.08-2.1,9.61,9.61,0,0,1-3-4,15.58,15.58,0,0,1-1.07-6V.5H106V20.2q0,3.8,1.69,5.32a9,9,0,0,0,10,0q1.71-1.53,1.71-5.32V.5h6.16V20.2q0,6.61-3.65,9.7A13.85,13.85,0,0,1,112.74,33Z"/><path class="cls-1" d="M173.5,32.45V.5h13.69a13.61,13.61,0,0,1,5.09.87,8.33,8.33,0,0,1,3.4,2.33,10,10,0,0,1,1.83,3.19,11.33,11.33,0,0,1,.59,3.7,10.16,10.16,0,0,1-2.76,7q-2.76,3.06-8.15,3.06h-7.53V32.42Zm14-17.62a3.91,3.91,0,0,0,3.2-1.25,4.53,4.53,0,0,0,1-3,4.64,4.64,0,0,0-1-3,3.89,3.89,0,0,0-3.25-1.28h-7.8v8.49Z"/><path class="cls-1" d="M207.23,32.45V.5h6.16v26h15.43v5.93Z"/><path class="cls-1" d="M259.4,32.45l-2.46-6.61H244.61l-2.46,6.61h-6.62L247.76.5h6l12.23,32ZM254.93,20.2l-3.15-8.31a23.75,23.75,0,0,1-1-2.87,26.33,26.33,0,0,1-1,2.87l-3.16,8.31Z"/><path class="cls-1" d="M287,33a13.13,13.13,0,0,1-6.3-1.44,10.67,10.67,0,0,1-4.2-3.88,18.86,18.86,0,0,1-2.22-5.23,24.17,24.17,0,0,1-.7-5.93,21.88,21.88,0,0,1,.73-5.69,20,20,0,0,1,2.23-5.25,11.43,11.43,0,0,1,4.2-4A12.46,12.46,0,0,1,287,0a12.1,12.1,0,0,1,7.23,2.1,11.6,11.6,0,0,1,4.18,5.09l-5.52,2.51a10.33,10.33,0,0,0-2.6-2.87,6.12,6.12,0,0,0-7.47.79,8.88,8.88,0,0,0-2.26,4,19.42,19.42,0,0,0-.59,4.86,14.71,14.71,0,0,0,1.8,7.35A5.7,5.7,0,0,0,287,27q3.33,0,5.8-4.11l5.65,2.15Q294.88,33,287,33Z"/><path class="cls-1" d="M137.29,32.45V.5h14.8q5.61,0,8.15,2.81A10.94,10.94,0,0,1,161.15,16a8.62,8.62,0,0,1-4.59,3.68l6.21,12.73h-6.94l-6-11.91H143.4V32.45Zm6.17-17.75h8.76a4,4,0,0,0,3.2-1.19,5,5,0,0,0,0-6,4,4,0,0,0-3.22-1.19h-8.76Z"/><path class="cls-2" d="M328.64,28.79a15.5,15.5,0,0,0,1.76-2.89l.27-.6L325,23.2Z"/><path class="cls-1" d="M332.13,19.52a28,28,0,0,0,.15-2.9,25.74,25.74,0,0,0-.43-4.8,18.41,18.41,0,0,0-1.45-4.47,15.23,15.23,0,0,0-2.51-3.79A10.82,10.82,0,0,0,324.08,1a14.21,14.21,0,0,0-10.27,0A10.52,10.52,0,0,0,310,3.56a15.62,15.62,0,0,0-2.54,3.79A18,18,0,0,0,306,11.82a27.16,27.16,0,0,0,0,9.6,18.1,18.1,0,0,0,1.47,4.48A15.62,15.62,0,0,0,310,29.69a10.5,10.5,0,0,0,3.81,2.59,14.11,14.11,0,0,0,10.27,0,10.8,10.8,0,0,0,3.81-2.59l.19-.22-3.61-5.53a6.64,6.64,0,0,1-2.15,2.35,6.26,6.26,0,0,1-7.67-.71,9,9,0,0,1-2.38-4,14.49,14.49,0,0,1-.43-2.06ZM312,13a15.08,15.08,0,0,1,1.19-3.4,6.36,6.36,0,0,1,11.44-.06,14,14,0,0,1,1.19,3.38c.06.28.09.58.14.87H311.89C311.93,13.48,312,13.2,312,13Z"/></g></g></svg>