<svg xmlns="http://www.w3.org/2000/svg" xmlns:xlink="http://www.w3.org/1999/xlink" viewBox="0 0 263.9 140.23"><defs><style>.cls-1{fill:none;}.cls-2{clip-path:url(#clip-path);}.cls-3{fill:url(#Degradado_sin_nombre);}</style><clipPath id="clip-path" transform="translate(0 0)"><path class="cls-1" d="M144.67,140.21H8.73L0,126.7l121.45.07L111.91,112,22,112,12.2,96.7,78.49,0H96.24L107.1,16.8,118.4,0H254.51l9.39,14.5-120.34-.08,10,15.54,90.12.14,8.61,13.57.28-.18L186.3,140.19H169L157.2,121.94Zm89.89-96.77-21.32.06L186.55,81.12l9.92,15.21ZM157.9,95.57l10.84-15.34-42-65-11,15ZM187.33,109,176.84,92.77l-10.29,16.11,9.9,15.34ZM29.82,96.75H51.1L77.78,59.16,67.89,43.88ZM77.4,30.67,87.9,46.94,98.32,30.62l-9.9-15.34Zm60.19,93.21,10.95-15.49-42-65L95.46,58.54ZM68.85,96.74h33.21L86.16,72.17ZM195.1,43.42H162.24L178,67.74Z"/></clipPath><linearGradient id="Degradado_sin_nombre" x1="210.53" y1="228.53" x2="214.94" y2="228.53" gradientTransform="translate(-12593.93 -13600.8) scale(59.82)" gradientUnits="userSpaceOnUse"><stop offset="0" stop-color="#6ac7e5"/><stop offset="0.01" stop-color="#6ac7e5"/><stop offset="0.78" stop-color="#45ac96"/><stop offset="1" stop-color="#45ac96"/></linearGradient></defs><g id="Capa_2" data-name="Capa 2"><g id="Capa_1-2" data-name="Capa 1"><g class="cls-2"><rect class="cls-3" width="263.9" height="140.23"/></g></g></g></svg>