<svg xmlns="http://www.w3.org/2000/svg" xmlns:xlink="http://www.w3.org/1999/xlink" viewBox="0 0 85.51 85.51"><defs><style>.cls-1{fill:#232f3b;}.cls-2{fill:url(#Degradado_sin_nombre_10);}</style><linearGradient id="Degradado_sin_nombre_10" x1="42.76" y1="24.25" x2="42.76" y2="61.27" gradientUnits="userSpaceOnUse"><stop offset="0.01" stop-color="#5bd2ee"/><stop offset="0.78" stop-color="#45ab95"/></linearGradient></defs><g id="Layer_2" data-name="Layer 2"><g id="Texto"><circle class="cls-1" cx="42.76" cy="42.76" r="42.76"/><path class="cls-2" d="M30,61.27a24,24,0,0,1,1.73-9.46,19.29,19.29,0,0,1,4.34-6.61,31.06,31.06,0,0,1,6.49-4.63,15,15,0,0,0,3.48-2.39,3.85,3.85,0,0,0,1.23-2.86q0-3.59-3.87-3.59a6.17,6.17,0,0,0-5.71,3.64L30.61,32.2a13.07,13.07,0,0,1,5.11-5.82,13.85,13.85,0,0,1,7.46-2.13c3.69,0,6.62,1,8.76,3.06A10.18,10.18,0,0,1,55.16,35a10.89,10.89,0,0,1-1.91,6.81,19.12,19.12,0,0,1-5.83,4.73,44.55,44.55,0,0,0-5.5,3.72,9.5,9.5,0,0,0-2.56,3.41H55.48v7.59Z"/></g></g></svg>