<svg xmlns="http://www.w3.org/2000/svg" xmlns:xlink="http://www.w3.org/1999/xlink" viewBox="0 0 85.51 85.51"><defs><style>.cls-1{fill:#232f3b;}.cls-2{fill:url(#Degradado_sin_nombre_10);}</style><linearGradient id="Degradado_sin_nombre_10" x1="42.76" y1="23.93" x2="42.76" y2="61.58" gradientUnits="userSpaceOnUse"><stop offset="0.01" stop-color="#5bd2ee"/><stop offset="0.78" stop-color="#45ab95"/></linearGradient></defs><g id="Layer_2" data-name="Layer 2"><g id="Texto"><circle class="cls-1" cx="42.76" cy="42.76" r="42.76"/><path class="cls-2" d="M43.18,61.58a14.64,14.64,0,0,1-8.25-2.29A13,13,0,0,1,29.88,53L37,50.09q2.3,4,6.18,4a5.07,5.07,0,0,0,3.35-1,3.58,3.58,0,0,0,1.25-2.91,3.31,3.31,0,0,0-1.25-2.55,5.42,5.42,0,0,0-3.62-1.09h-4V38.91h4a3.68,3.68,0,0,0,2.73-1,3.91,3.91,0,0,0,1-2.84,3.56,3.56,0,0,0-1-2.6,3.75,3.75,0,0,0-2.8-1,5.34,5.34,0,0,0-4.66,2.86L31,31.53A14.16,14.16,0,0,1,35.87,26a12.5,12.5,0,0,1,7-2,11.92,11.92,0,0,1,8.38,2.92,9.72,9.72,0,0,1,3.19,7.54,9.07,9.07,0,0,1-4.29,8.06,8.12,8.12,0,0,1,3.87,3.17,9.63,9.63,0,0,1,1.57,5.61,9.32,9.32,0,0,1-3.45,7.41A13.41,13.41,0,0,1,43.18,61.58Z"/></g></g></svg>