<svg xmlns="http://www.w3.org/2000/svg" xmlns:xlink="http://www.w3.org/1999/xlink" viewBox="0 0 67.25 67.39"><defs><style>.cls-1{fill:url(#Degradado_sin_nombre_10);}</style><linearGradient id="Degradado_sin_nombre_10" y1="33.69" x2="67.25" y2="33.69" gradientUnits="userSpaceOnUse"><stop offset="0.01" stop-color="#5bd2ee"/><stop offset="0.78" stop-color="#45ab95"/></linearGradient></defs><g id="Layer_2" data-name="Layer 2"><g id="Texto"><path class="cls-1" d="M63.63,48.65a33.53,33.53,0,0,0,0-29.87c.21-.21.49-.36.71-.57a9.42,9.42,0,0,0,2.9-6.88,11.25,11.25,0,0,0-3.61-7.67A11,11,0,0,0,56,.05,9.85,9.85,0,0,0,49.08,3a5,5,0,0,0-.57.7,33.38,33.38,0,0,0-29.8,0c-.21-.21-.36-.49-.57-.7C14-1.23,8.28-.95,3.66,3.66A11,11,0,0,0,.05,11.33,9.56,9.56,0,0,0,3,18.21a5,5,0,0,0,.7.57,33.53,33.53,0,0,0,0,29.87c-.21.22-.49.36-.7.57-4.19,4.19-3.91,9.86.7,14.48a11.33,11.33,0,0,0,7.81,3.69,9.34,9.34,0,0,0,6.67-3,5.72,5.72,0,0,0,.57-.71,33.53,33.53,0,0,0,29.87,0c.21.21.36.49.57.71a9.46,9.46,0,0,0,6.67,3,11,11,0,0,0,7.81-3.69A11,11,0,0,0,67.24,56a9.55,9.55,0,0,0-2.9-6.88A7.27,7.27,0,0,0,63.63,48.65ZM56,4.16a7,7,0,0,1,4.76,2.41,7,7,0,0,1,2.41,4.76A5.3,5.3,0,0,1,61.5,15a32.11,32.11,0,0,0-4.19-5.11A36.12,36.12,0,0,0,52.2,5.72,5.27,5.27,0,0,1,56,4.16ZM40.49,15.3l2-7.8a1.59,1.59,0,0,1,2.13-1.07A29.21,29.21,0,0,1,60.86,22.68a1.57,1.57,0,0,1-1.07,2.13l-7.8,2A1.47,1.47,0,0,1,50.21,26a17.54,17.54,0,0,0-8.87-8.87A1.55,1.55,0,0,1,40.49,15.3ZM24.74,7.5l2,7.8a1.48,1.48,0,0,1-.85,1.78A17.54,17.54,0,0,0,17,26a1.64,1.64,0,0,1-1.78.85l-7.8-2a1.59,1.59,0,0,1-1.07-2.13A29.21,29.21,0,0,1,22.61,6.43,1.57,1.57,0,0,1,24.74,7.5ZM4.09,11.33A7,7,0,0,1,6.5,6.57c2.91-2.91,6-3.19,8.52-.85A33.56,33.56,0,0,0,5.72,15,5.16,5.16,0,0,1,4.09,11.33ZM6.5,60.79c-2.91-2.91-3.19-6-.85-8.52a33.56,33.56,0,0,0,9.3,9.3C12.53,64,9.41,63.7,6.5,60.79Zm20.23-8.73-2,7.8a1.59,1.59,0,0,1-2.13,1.07A29.21,29.21,0,0,1,6.36,44.68a1.57,1.57,0,0,1,1.07-2.13l7.8-2a1.48,1.48,0,0,1,1.78.86,17.42,17.42,0,0,0,3.61,5.25,17.68,17.68,0,0,0,5.26,3.62A1.47,1.47,0,0,1,26.73,52.06ZM23.6,43.69a14.15,14.15,0,1,1,20,0A14.14,14.14,0,0,1,23.6,43.69ZM42.48,59.86l-2-7.8a1.46,1.46,0,0,1,.85-1.77,17.68,17.68,0,0,0,5.26-3.62,17.42,17.42,0,0,0,3.61-5.25A1.64,1.64,0,0,1,52,40.56l7.8,2a1.59,1.59,0,0,1,1.07,2.13A29.21,29.21,0,0,1,44.61,60.93,1.62,1.62,0,0,1,42.48,59.86Zm18.24.93c-2.91,2.91-6,3.19-8.52.85a36.12,36.12,0,0,0,5.11-4.19,35.57,35.57,0,0,0,4.19-5.11A5.3,5.3,0,0,1,63.13,56,7,7,0,0,1,60.72,60.79Z"/></g></g></svg>