<svg xmlns="http://www.w3.org/2000/svg" xmlns:xlink="http://www.w3.org/1999/xlink" viewBox="0 0 76.82 76.42"><defs><style>.cls-1{fill-rule:evenodd;fill:url(#Degradado_sin_nombre_10);}</style><linearGradient id="Degradado_sin_nombre_10" x1="38.41" x2="38.41" y2="76.42" gradientUnits="userSpaceOnUse"><stop offset="0.01" stop-color="#5bd2ee"/><stop offset="0.78" stop-color="#45ab95"/></linearGradient></defs><g id="Layer_2" data-name="Layer 2"><g id="Texto"><path class="cls-1" d="M44.14,20.19c-.34,0-.34-.64-.34-.64V4.4A4.43,4.43,0,0,0,39.74,0H4A4.18,4.18,0,0,0,0,4.4V72c0,2.74,1.66,4.4,4,4.4H72.77c2.36,0,4-1.66,4-4.4V19.87ZM7.06,15.14c0-.64.67-1,1.34-1h8.79a1,1,0,0,1,1,1v5.38a1.06,1.06,0,0,1-1,1H8.4c-.67,0-1.34-.32-1.34-1Zm0,25.24V35A1.52,1.52,0,0,1,8.4,34h8.79a1.56,1.56,0,0,1,1,1v5.37a1.48,1.48,0,0,1-1,1.35H8.4a1.43,1.43,0,0,1-1.34-1.35ZM27.63,69a.9.9,0,0,1-1,1H16.84a1.07,1.07,0,0,1-1-1V52.52a1.07,1.07,0,0,1,1-1h9.77a.9.9,0,0,1,1,1Zm8.76-28.63c0,.7-.35,1.35-1,1.35H26.61c-.67,0-1-.65-1-1.35V35a1.07,1.07,0,0,1,1-1h8.75a1.1,1.1,0,0,1,1,1v5.37Zm0-19.86a.9.9,0,0,1-1,1H26.61c-.67,0-1-.32-1-1V15.14c0-.64.32-1,1-1h8.75c.68,0,1,.32,1,1v5.38Zm19.2,37.37a1.49,1.49,0,0,1-1,1.35H45.81c-.67,0-1-.65-1-1.35V52.52c0-.7.32-1,1-1h8.78a1.07,1.07,0,0,1,1,1Zm0-19.87a1.07,1.07,0,0,1-1,1H45.81c-.67,0-1-.32-1-1V32.65c0-.7.32-1.34,1-1.34h8.78a1.48,1.48,0,0,1,1,1.34ZM71.43,57.89c0,.7-.32,1.35-1,1.35H61.65c-.67,0-1-.65-1-1.35V52.52c0-.7.32-1,1-1h8.78c.68,0,1,.32,1,1Zm0-19.87c0,.7-.32,1-1,1H61.65c-.67,0-1-.32-1-1V32.65c0-.7.32-1.34,1-1.34h8.78c.68,0,1,.64,1,1.34Z"/></g></g></svg>