<svg xmlns="http://www.w3.org/2000/svg" xmlns:xlink="http://www.w3.org/1999/xlink" viewBox="0 0 50 50"><defs><style>.cls-1{fill:#232f3b;}.cls-2{fill-rule:evenodd;fill:url(#Degradado_sin_nombre_10);}</style><linearGradient id="Degradado_sin_nombre_10" x1="25.81" y1="8" x2="25.81" y2="39.61" gradientUnits="userSpaceOnUse"><stop offset="0.01" stop-color="#5bd2ee"/><stop offset="0.78" stop-color="#45ab95"/></linearGradient></defs><g id="Layer_2" data-name="Layer 2"><g id="Texto"><circle class="cls-1" cx="25" cy="25" r="25"/><path class="cls-2" d="M12.29,8H27.48a3.19,3.19,0,0,1,1.68.55h0a2,2,0,0,1,.7,1.4v27.7c0,.29-.15.43-.15.56h1V29a1.21,1.21,0,0,1,.42-1h0a1.54,1.54,0,0,1,1.11-.42h6.7a1.56,1.56,0,0,1,1.12.42h0a1.2,1.2,0,0,1,.41,1v9.2h.83c.29,0,.43.13.43.42v.69c0,.15-.14.29-.43.29h-29a2.22,2.22,0,0,1-1.67-.56h0a1.74,1.74,0,0,1-.7-1.4V10a2,2,0,0,1,.7-1.4h0A3.15,3.15,0,0,1,12.29,8ZM37.65,30.15H36.54c-.13,0-.26,0-.26.13l-.16.13v1.11l.16.16h0c0,.13.13.13.26.13h1.11c.16,0,.16,0,.29-.13h0v-1.4c-.13-.13-.13-.13-.29-.13Zm-2.91,5.13H33.48c-.14,0-.14,0-.27.15h0V37h1.67c0-.13.13-.13.13-.28v-1a.51.51,0,0,0-.13-.29h0a.14.14,0,0,0-.14-.15Zm2.91,0H36.54c-.13,0-.26,0-.26.15h0a.48.48,0,0,0-.16.29v1c0,.15.16.15.16.28h1.66V35.43h0c-.13-.15-.13-.15-.29-.15Zm-2.91-2.49H33.21v1.53c.13,0,.13.13.27.13h1.26l.14-.13A.55.55,0,0,0,35,34v-1c0-.14-.13-.14-.13-.27Zm2.91,0H36.28c0,.13-.16.13-.16.27v1a.51.51,0,0,0,.16.29.45.45,0,0,0,.26.13h1.11c.16,0,.16-.13.29-.13V32.79Zm-2.91-2.64H33.48c-.14,0-.14,0-.27.13v1.4h0c.13.13.13.13.27.13h1.26s.14,0,.14-.13h0l.13-.16V30.41l-.13-.13c0-.13-.14-.13-.14-.13Zm-17-13.38H14.8c-.28,0-.41,0-.56.14h0a1.2,1.2,0,0,0-.28.55v2.09a.7.7,0,0,0,.28.55h0c.15.16.28.16.56.16h2.93c.13,0,.42,0,.55-.16h0a.65.65,0,0,0,.28-.55V17.46a1,1,0,0,0-.28-.55h0a.82.82,0,0,0-.55-.14Zm0-5.28H14.8c-.28,0-.41,0-.56.13h0a1.1,1.1,0,0,0-.28.56v2.08a.72.72,0,0,0,.28.56h0c.15.13.28.13.56.13h2.93a.86.86,0,0,0,.55-.13h0a.67.67,0,0,0,.28-.56V12.18a1,1,0,0,0-.28-.56h0a.86.86,0,0,0-.55-.13Zm7.25,0H22.05a.91.91,0,0,0-.56.13h0a1,1,0,0,0-.27.56v2.08a.69.69,0,0,0,.27.56h0a.91.91,0,0,0,.56.13H25c.28,0,.41,0,.56-.13h0a.72.72,0,0,0,.27-.56V12.18a1.08,1.08,0,0,0-.27-.56h0c-.15-.13-.28-.13-.56-.13ZM17.73,32.66H14.8a.76.76,0,0,0-.56.26h0c-.13.14-.28.29-.28.42v2.09a.74.74,0,0,0,.28.56h0a.76.76,0,0,0,.56.26h2.93a1.07,1.07,0,0,0,.55-.26h0a.68.68,0,0,0,.28-.56V33.34c0-.13-.13-.28-.28-.42h0a1.07,1.07,0,0,0-.55-.26Zm7.25,0H22.05a1.13,1.13,0,0,0-.56.26h0c-.14.14-.27.29-.27.42v2.09a.7.7,0,0,0,.27.56h0a1.13,1.13,0,0,0,.56.26H25a.76.76,0,0,0,.56-.26h0a.74.74,0,0,0,.27-.56V33.34c0-.13-.14-.28-.27-.42h0a.76.76,0,0,0-.56-.26Zm-7.25-5.31H14.8a.75.75,0,0,0-.56.29h0c-.13,0-.28.28-.28.42v2.09a.82.82,0,0,0,.28.55h0c.15.13.28.13.56.13h2.93a.86.86,0,0,0,.55-.13h0a.74.74,0,0,0,.28-.55V28.06c0-.14-.13-.42-.28-.42h0a1.06,1.06,0,0,0-.55-.29Zm7.25,0H22.05a1.12,1.12,0,0,0-.56.29h0c-.14,0-.27.28-.27.42v2.09a.77.77,0,0,0,.27.55h0a.91.91,0,0,0,.56.13H25c.28,0,.41,0,.56-.13h0a.81.81,0,0,0,.27-.55V28.06c0-.14-.14-.42-.27-.42h0a.75.75,0,0,0-.56-.29Zm-7.25-5.29H14.8c-.28,0-.41.13-.56.13h0a1.23,1.23,0,0,0-.28.56v2.11a.78.78,0,0,0,.28.55h0c.15.14.28.14.56.14h2.93a.82.82,0,0,0,.55-.14h0a.71.71,0,0,0,.28-.55V22.75a1.06,1.06,0,0,0-.28-.56h0c-.13,0-.42-.13-.55-.13Zm7.25,0H22.05c-.13,0-.42.13-.56.13h0a1.11,1.11,0,0,0-.27.56v2.11a.73.73,0,0,0,.27.55h0a.86.86,0,0,0,.56.14H25c.28,0,.41,0,.56-.14h0a.77.77,0,0,0,.27-.55V22.75a1.2,1.2,0,0,0-.27-.56h0c-.15,0-.28-.13-.56-.13Zm0-5.29H22.05a.86.86,0,0,0-.56.14h0a1.08,1.08,0,0,0-.27.55v2.09a.67.67,0,0,0,.27.55h0a.77.77,0,0,0,.56.16H25c.28,0,.41,0,.56-.16h0a.7.7,0,0,0,.27-.55V17.46a1.17,1.17,0,0,0-.27-.55h0c-.15-.14-.28-.14-.56-.14Z"/></g></g></svg>