<svg xmlns="http://www.w3.org/2000/svg" xmlns:xlink="http://www.w3.org/1999/xlink" viewBox="0 0 50 50"><defs><style>.cls-1{fill:#232f3b;}.cls-2{fill:url(#Degradado_sin_nombre_10);}.cls-3{fill:url(#Degradado_sin_nombre_10-2);}.cls-4{fill:url(#Degradado_sin_nombre_10-3);}.cls-5{fill:url(#Degradado_sin_nombre_10-4);}</style><linearGradient id="Degradado_sin_nombre_10" x1="23.95" y1="26.45" x2="23.95" y2="40.16" gradientUnits="userSpaceOnUse"><stop offset="0.01" stop-color="#5bd2ee"/><stop offset="0.78" stop-color="#45ab95"/></linearGradient><linearGradient id="Degradado_sin_nombre_10-2" x1="24.57" y1="23.95" x2="24.57" y2="25.2" xlink:href="#Degradado_sin_nombre_10"/><linearGradient id="Degradado_sin_nombre_10-3" x1="24.57" y1="21.46" x2="24.57" y2="22.71" xlink:href="#Degradado_sin_nombre_10"/><linearGradient id="Degradado_sin_nombre_10-4" x1="24.57" y1="9" x2="24.57" y2="20.22" xlink:href="#Degradado_sin_nombre_10"/></defs><g id="Layer_2" data-name="Layer 2"><g id="Texto"><circle class="cls-1" cx="25" cy="25" r="25"/><path class="cls-2" d="M38.56,29.18c-.78-1.21-2.29-.89-3-.53L29.8,32.07H24a.63.63,0,0,1,0-1.26h4.6a2.18,2.18,0,0,0,1.69-3.64,2.2,2.2,0,0,0-1.62-.72h-7a6.93,6.93,0,0,0-3.3.94l-4,2.36L14,28.94,9,30.81l3.74,9.35,5-1.87L17,36.42H30.39a2.44,2.44,0,0,0,1.15-.36l6.26-4a2.42,2.42,0,0,0,1.06-1.39A2,2,0,0,0,38.56,29.18ZM13.44,38.56l-2.82-7,2.65-1,2.82,7ZM37.14,31l-6.27,4a1.18,1.18,0,0,1-.53.16H16.47l-1.7-4.25,4.14-2.45a5.66,5.66,0,0,1,2.68-.78h7a.91.91,0,0,1,.69.31,1,1,0,0,1,.24.74,1,1,0,0,1-1,.82H24a1.88,1.88,0,0,0,0,3.75h6a.72.72,0,0,0,.32-.08l5.85-3.48s1-.48,1.37.1a.7.7,0,0,1,.13.55A1.16,1.16,0,0,1,37.14,31Z"/><rect class="cls-3" x="8.99" y="23.95" width="31.16" height="1.25"/><rect class="cls-4" x="8.99" y="21.46" width="31.16" height="1.25"/><path class="cls-5" d="M37,9H12.11L9,20.22H40.15ZM19.59,15.23h-5V14h5Zm5.6,2.45v0a.62.62,0,0,1-.62.63.63.63,0,0,1-.62-.63v0a2,2,0,0,1-1.86-1.37.63.63,0,0,1,.48-.74.61.61,0,0,1,.73.45s.21.46,1.19.46c1.33,0,1.33-.41,1.33-.58s-.51-.62-1.4-.84-2.34-.6-2.34-1.89c0-.46.2-1.44,1.87-1.64v0a.62.62,0,0,1,.62-.62.62.62,0,0,1,.62.62v.06a2.35,2.35,0,0,1,1.7,1.12.61.61,0,0,1-.27.83.62.62,0,0,1-.84-.28,1.36,1.36,0,0,0-1.21-.48c-.21,0-1.24,0-1.24.43,0,.23.4.42,1.4.68,1.55.4,2.33,1.09,2.33,2.05C27.06,16.5,26.8,17.46,25.19,17.68Zm9.35-2.45h-5V14h5Z"/></g></g></svg>