<svg xmlns="http://www.w3.org/2000/svg" xmlns:xlink="http://www.w3.org/1999/xlink" viewBox="0 0 50 50"><defs><style>.cls-1{fill:#232f3b;}.cls-2{fill-rule:evenodd;fill:url(#Degradado_sin_nombre_10);}</style><linearGradient id="Degradado_sin_nombre_10" x1="24.88" y1="7.46" x2="24.88" y2="39.2" gradientUnits="userSpaceOnUse"><stop offset="0.01" stop-color="#5bd2ee"/><stop offset="0.78" stop-color="#45ab95"/></linearGradient></defs><g id="Layer_2" data-name="Layer 2"><g id="Texto"><circle class="cls-1" cx="25" cy="25" r="25"/><path class="cls-2" d="M17.22,20.29v7.65H27V20.29L22.1,16.11ZM40.25,36,34.8,30.61a1.88,1.88,0,0,0-2.09-.42l-1-1a13,13,0,0,0-.55-18,13.2,13.2,0,0,0-18.43,0,13.09,13.09,0,0,0,18,19l1,1a1.9,1.9,0,0,0,.42,2.07l5.44,5.45a2,2,0,0,0,2.66,0,1.93,1.93,0,0,0,0-2.65ZM29.64,28.1h0a10.74,10.74,0,0,1-15.36,0A10.86,10.86,0,0,1,29.64,12.75a11,11,0,0,1,0,15.35Zm-.29-9.77-6.55-6a1.35,1.35,0,0,0-1.4,0l-6.56,6a1.1,1.1,0,0,0-.14,1.4h0a1.27,1.27,0,0,0,.84.43,1.1,1.1,0,0,0,.55-.29l6-5.45L28,19.87a1,1,0,0,0,1.38-.14.91.91,0,0,0,0-1.4Zm-6.83,2.78h0a.31.31,0,0,1,.28-.27h2.1a.29.29,0,0,1,.27.27v1.27a.29.29,0,0,1-.27.27H22.8a.31.31,0,0,1-.28-.27Zm-1,1.27h0c0,.13,0,.27-.14.27H19.31a.29.29,0,0,1-.28-.27V21.11a.29.29,0,0,1,.28-.27H21.4c.14,0,.14.14.14.27Zm1,2h0s.15-.16.28-.16h2.1a.44.44,0,0,1,.27.16v1.38c0,.15-.13.15-.27.15H22.8c-.13,0-.28,0-.28-.15Zm-1,1.38h0c0,.15,0,.15-.14.15H19.31c-.15,0-.28,0-.28-.15V24.34a.44.44,0,0,1,.28-.16H21.4c.14,0,.14.16.14.16Z"/></g></g></svg>