<svg xmlns="http://www.w3.org/2000/svg" xmlns:xlink="http://www.w3.org/1999/xlink" viewBox="0 0 50 50"><defs><style>.cls-1{fill:#232f3b;}.cls-2{fill:url(#Degradado_sin_nombre_10);}</style><linearGradient id="Degradado_sin_nombre_10" x1="24.49" y1="13" x2="24.49" y2="37.25" gradientUnits="userSpaceOnUse"><stop offset="0.01" stop-color="#5bd2ee"/><stop offset="0.78" stop-color="#45ab95"/></linearGradient></defs><g id="Layer_2" data-name="Layer 2"><g id="Texto"><circle class="cls-1" cx="25" cy="25" r="25"/><path class="cls-2" d="M37.78,16.46V35.52a.58.58,0,0,1-1.16,0V13H10.06V34.37A2.88,2.88,0,0,0,13,37.25H37.2a1.73,1.73,0,0,0,1.73-1.73V16.46ZM13.52,21.08h9.24v1.16H13.52Zm0,2.31h6.93v1.16H13.52Zm19.64,3.47H32V24.21l-4.66,4.66a1.54,1.54,0,0,1,0,.3,1.15,1.15,0,0,1-2.27.29l-4.42-1.2a1.19,1.19,0,0,1-.82.33,1.35,1.35,0,0,1-.29,0l-3.79,3.79a.92.92,0,0,1,0,.29,1.16,1.16,0,1,1-1.15-1.15,1.35,1.35,0,0,1,.29,0l3.79-3.79a1.35,1.35,0,0,1,0-.29,1.15,1.15,0,0,1,2.27-.3l4.42,1.21a1.16,1.16,0,0,1,.82-.34.93.93,0,0,1,.29,0l4.66-4.67H28.54V22.24h4.62Zm0-8.09H13.52V17.62H33.16Z"/></g></g></svg>