<svg xmlns="http://www.w3.org/2000/svg" xmlns:xlink="http://www.w3.org/1999/xlink" viewBox="0 0 50 50"><defs><style>.cls-1{fill:#232f3b;}.cls-2{fill:url(#Degradado_sin_nombre_10);}.cls-3{fill:url(#Degradado_sin_nombre_10-2);}.cls-4{fill:url(#Degradado_sin_nombre_10-3);}</style><linearGradient id="Degradado_sin_nombre_10" x1="23.25" y1="10" x2="23.25" y2="39" gradientUnits="userSpaceOnUse"><stop offset="0.01" stop-color="#5bd2ee"/><stop offset="0.78" stop-color="#45ab95"/></linearGradient><linearGradient id="Degradado_sin_nombre_10-2" x1="16" y1="11.16" x2="16" y2="25.08" xlink:href="#Degradado_sin_nombre_10"/><linearGradient id="Degradado_sin_nombre_10-3" x1="33.4" y1="23.92" x2="33.4" y2="37.84" xlink:href="#Degradado_sin_nombre_10"/></defs><g id="Layer_2" data-name="Layer 2"><g id="Texto"><circle class="cls-1" cx="25" cy="25" r="25"/><polygon class="cls-2" points="33.4 10 23.54 16.38 26.87 18.14 13.1 39 17.16 39 29.88 19.73 33.4 21.6 33.4 10"/><path class="cls-3" d="M16,11.16c-3.19,0-5.8,3.12-5.8,7s2.61,7,5.8,7,5.8-3.12,5.8-7S19.2,11.16,16,11.16Zm0,11.6c-1.62,0-2.9-2-2.9-4.64s1.28-4.64,2.9-4.64,2.9,2,2.9,4.64S17.63,22.76,16,22.76Z"/><path class="cls-4" d="M33.4,23.92c-3.19,0-5.8,3.12-5.8,7s2.61,7,5.8,7,5.8-3.12,5.8-7S36.6,23.92,33.4,23.92Zm0,11.6c-1.62,0-2.9-2-2.9-4.64s1.28-4.64,2.9-4.64,2.9,2,2.9,4.64S35,35.52,33.4,35.52Z"/></g></g></svg>