<svg xmlns="http://www.w3.org/2000/svg" xmlns:xlink="http://www.w3.org/1999/xlink" viewBox="0 0 50 50"><defs><style>.cls-1{fill:#232f3b;}.cls-2{fill:url(#Degradado_sin_nombre_10);}</style><linearGradient id="Degradado_sin_nombre_10" x1="24.95" y1="8" x2="24.95" y2="38.26" gradientUnits="userSpaceOnUse"><stop offset="0.01" stop-color="#5bd2ee"/><stop offset="0.78" stop-color="#45ab95"/></linearGradient></defs><g id="Layer_2" data-name="Layer 2"><g id="Texto"><circle class="cls-1" cx="25" cy="25" r="25"/><path class="cls-2" d="M21.32,15.26A12.05,12.05,0,0,0,17.69,11s.77-1.82,2.12-1.82a2.74,2.74,0,0,1,2.11,1.21S22.85,8,25,8s3,2.42,3,2.42A2.74,2.74,0,0,1,30.1,9.21c1.34,0,2.11,1.82,2.11,1.82a12.05,12.05,0,0,0-3.63,4.23Zm16.3,22.62a.6.6,0,0,1-.56.38H12.85a.61.61,0,0,1-.57-.38.6.6,0,0,1,.16-.67c.68-.62,1.62-1.37,1.62-2.28V29.79c0-4.36,1.17-7.48,3.8-10.11,2-2,3.39-3.16,3.46-3.21h7.26c.07.05,1.49,1.24,3.46,3.21,2.63,2.63,3.81,5.75,3.81,10.11v5.14c0,.91.93,1.66,1.61,2.28A.6.6,0,0,1,37.62,37.88Zm-9-9c0-1.82-2-2.56-3.47-3-1.95-.52-2.58-.91-2.58-1.6,0-1,1.32-1.18,2.42-1.18a2.45,2.45,0,0,1,2.31,1.07.61.61,0,0,0,1.1-.52A3.51,3.51,0,0,0,25.56,22V20.71a.61.61,0,0,0-.61-.6.6.6,0,0,0-.6.6v1.23c-2.72.2-3,1.7-3,2.37,0,1.84,2,2.38,3.47,2.77,2.31.63,2.58,1.33,2.58,1.8s0,1.52-2.55,1.52c-2.08,0-2.28-1.13-2.29-1.27a.6.6,0,0,0-.65-.55.61.61,0,0,0-.56.65c.06.77.77,2.18,3,2.36v1.23a.6.6,0,0,0,.6.6.61.61,0,0,0,.61-.6V31.57C28.16,31.33,28.58,29.82,28.58,28.88Z"/></g></g></svg>