<svg xmlns="http://www.w3.org/2000/svg" xmlns:xlink="http://www.w3.org/1999/xlink" viewBox="0 0 50 50"><defs><style>.cls-1{fill:#232f3b;}.cls-2{fill:url(#Degradado_sin_nombre_10);}.cls-3{fill:url(#Degradado_sin_nombre_10-2);}.cls-4{fill:url(#Degradado_sin_nombre_10-3);}</style><linearGradient id="Degradado_sin_nombre_10" x1="25.13" y1="16.9" x2="25.13" y2="32.74" gradientUnits="userSpaceOnUse"><stop offset="0.01" stop-color="#5bd2ee"/><stop offset="0.78" stop-color="#45ab95"/></linearGradient><linearGradient id="Degradado_sin_nombre_10-2" x1="25.13" y1="9.64" x2="25.13" y2="40" xlink:href="#Degradado_sin_nombre_10"/><linearGradient id="Degradado_sin_nombre_10-3" x1="14.9" y1="7" x2="14.9" y2="22.18" xlink:href="#Degradado_sin_nombre_10"/></defs><g id="Layer_2" data-name="Layer 2"><g id="Texto"><circle class="cls-1" cx="25" cy="25" r="25"/><path class="cls-2" d="M25.13,32.74a7.92,7.92,0,1,0-3.3-15.11v1.09l2,2v.21a3.73,3.73,0,0,1,.66-.17V20.2a.66.66,0,0,1,1.32,0v.57a2.58,2.58,0,0,1,1.83,1.51.66.66,0,1,1-1.23.46A1.32,1.32,0,0,0,25.13,22c-1.32,0-1.32.59-1.32.8,0,.45.22.73,1.53,1.17,1.62.54,2.43,1.43,2.43,2.64a2.14,2.14,0,0,1-2,2.27v.55a.66.66,0,0,1-1.32,0V28.9a2.34,2.34,0,0,1-2-1.79.66.66,0,0,1,1.3-.23c0,.13.22.75,1.25.75,1.29,0,1.4-.5,1.4-1,0-.24,0-.88-1.53-1.39-.81-.27-2-.67-2.31-1.73H21l-2-2H17.94a7.9,7.9,0,0,0,7.19,11.22Z"/><path class="cls-3" d="M25.13,9.64a15.25,15.25,0,0,0-5.63,1.08l2.33,2.33V16.2a9.27,9.27,0,1,1-5.32,5.32H13.37L11,19.19A15.18,15.18,0,1,0,25.13,9.64Z"/><path class="cls-4" d="M20.51,19.27V13.6L13.91,7v6.6H7.31l6.6,6.6h5.67l2,2h.93v-.93ZM15.23,13.6V10.19l1.32,1.32v3.8L15.23,14ZM10.5,14.92h3.8l1.32,1.32h-3.8Zm4,4-1.32-1.32h3.8l1.32,1.32ZM19.19,18l-1.32-1.32v-3.8l1.32,1.32Z"/></g></g></svg>