<svg xmlns="http://www.w3.org/2000/svg" xmlns:xlink="http://www.w3.org/1999/xlink" viewBox="0 0 50 50"><defs><style>.cls-1{fill:#232f3b;}.cls-2{fill:url(#Degradado_sin_nombre_10);}</style><linearGradient id="Degradado_sin_nombre_10" x1="24.96" y1="8.19" x2="24.96" y2="42.21" gradientUnits="userSpaceOnUse"><stop offset="0.01" stop-color="#5bd2ee"/><stop offset="0.78" stop-color="#45ab95"/></linearGradient></defs><g id="Layer_2" data-name="Layer 2"><g id="Texto"><circle class="cls-1" cx="25" cy="25" r="25"/><path class="cls-2" d="M22.44,34.4a8.26,8.26,0,0,0,1.82,5.44H9.18V35.23h3.91V25.34H9L25,8.75,40.87,25.34h-4v1.95a9.47,9.47,0,0,0-5.45-1.81,9,9,0,0,0-8.93,8.92ZM36.82,29a7.72,7.72,0,0,1,2.24,5.44,7.5,7.5,0,0,1-2.24,5.44,7.85,7.85,0,0,1-5.45,2.37,7.88,7.88,0,0,1-5.44-2.37A7.45,7.45,0,0,1,23.7,34.4,7.67,7.67,0,0,1,25.93,29a7.76,7.76,0,0,1,10.89,0Zm-.55,5.44a4.9,4.9,0,0,0-1.39-3.48,5,5,0,0,0-3.51-1.41,5.19,5.19,0,0,0-3.48,1.41,5.43,5.43,0,0,0-1.4,3.48,5,5,0,0,0,1.4,3.49,4.76,4.76,0,0,0,3.48,1.53,4.63,4.63,0,0,0,3.51-1.53A4.53,4.53,0,0,0,36.27,34.4Zm-13-25.8.41-.41H14.9v9l.42.15Zm8.63,24.84c-.75-.21-.91-.32-1-.29s.15-.13.74-.13a.88.88,0,0,1,.71.25h0a.8.8,0,0,0,1.07.38.79.79,0,0,0,.41-.45.83.83,0,0,0,0-.62,2.13,2.13,0,0,0-1.36-1.06V31.3a.81.81,0,0,0-1.61,0v.19a1.64,1.64,0,0,0-1.52,1.62c0,1.31,1.33,1.67,2.12,1.88s.92.43.92.54-.13.14-.78.14S31,35.48,31,35.5a.81.81,0,0,0-.95-.6.84.84,0,0,0-.51.35.77.77,0,0,0-.11.61,1.92,1.92,0,0,0,1.5,1.34v.19a.81.81,0,0,0,1.61,0v-.2A1.71,1.71,0,0,0,34,35.45C34,34.49,33.32,33.81,31.92,33.44Z"/></g></g></svg>