<svg id="Capa_1" data-name="Capa 1" xmlns="http://www.w3.org/2000/svg" xmlns:xlink="http://www.w3.org/1999/xlink" viewBox="0 0 332.29 205.93"><defs><style>.cls-1{fill:none;}.cls-2{clip-path:url(#clip-path);}.cls-3{fill:url(#Degradado_sin_nombre_2);}.cls-4{fill:#24303c;}.cls-5{fill:#47b8ae;}</style><clipPath id="clip-path" transform="translate(-37.71 -27.12)"><path class="cls-1" d="M216.57,167.33l-135.94,0L71.9,153.82l121.45.07-9.54-14.74-89.91-.07-9.8-15.26,66.29-96.7h17.75L179,43.92,190.3,27.15H326.41l9.39,14.5-120.34-.08,10,15.54,90.12.14,8.61,13.57.28-.18-66.27,96.67-17.27,0L229.1,149.06Zm89.89-96.77-21.32.06-26.69,37.62,9.92,15.21ZM229.8,122.69l10.84-15.34-42-65-11,15Zm29.43,13.46-10.49-16.26L238.45,136l9.9,15.34ZM101.72,123.87H123l26.68-37.59L139.79,71ZM149.3,57.79l10.5,16.27,10.42-16.32-9.9-15.34ZM209.49,151l10.95-15.49-42-65L167.36,85.66Zm-68.74-27.14,33.21,0-15.9-24.57ZM267,70.54l-32.86,0,15.73,24.32Z"/></clipPath><linearGradient id="Degradado_sin_nombre_2" x1="381.4" y1="276.35" x2="385.81" y2="276.35" gradientTransform="matrix(59.82, 0, 0, -59.82, -22780.96, 16601.2)" gradientUnits="userSpaceOnUse"><stop offset="0" stop-color="#6ac7e5"/><stop offset="0.01" stop-color="#6ac7e5"/><stop offset="0.78" stop-color="#45ac96"/><stop offset="1" stop-color="#45ac96"/></linearGradient></defs><line class="cls-1" x1="140.32" y1="2.47" x2="219.53" y2="129.78"/><path class="cls-1" d="M371.19,217.72" transform="translate(-37.71 -27.12)"/><g class="cls-2"><rect class="cls-3" x="34.19" width="263.9" height="140.23"/></g><line class="cls-1" x1="152.6" y1="0.03" x2="230.62" y2="125.44"/><path class="cls-4" d="M37.71,232.25V200.3h21.4v5.84H43.87v6.71h9.67v5.85H43.87v13.55Z" transform="translate(-37.71 -27.12)"/><path class="cls-4" d="M81.12,232.8a16.68,16.68,0,0,1-4.78-.66,12.57,12.57,0,0,1-4.08-2.1,9.52,9.52,0,0,1-2.94-4,15.46,15.46,0,0,1-1.08-6V200.3h6.17V220q0,3.79,1.68,5.32a7.28,7.28,0,0,0,5,1.53,7.25,7.25,0,0,0,5-1.53c1.14-1,1.72-2.79,1.72-5.32V200.3H94V220q0,6.61-3.65,9.7A13.84,13.84,0,0,1,81.12,232.8Z" transform="translate(-37.71 -27.12)"/><path class="cls-4" d="M118.86,206.24v26H112.7v-26h-9.13V200.3H128v5.94Z" transform="translate(-37.71 -27.12)"/><path class="cls-4" d="M150.45,232.8a16.66,16.66,0,0,1-4.77-.66,12.47,12.47,0,0,1-4.08-2.1,9.62,9.62,0,0,1-2.95-4,15.65,15.65,0,0,1-1.07-6V200.3h6.16V220q0,3.79,1.69,5.32a9,9,0,0,0,10,0q1.71-1.53,1.71-5.32V200.3h6.16V220q0,6.61-3.65,9.7A13.82,13.82,0,0,1,150.45,232.8Z" transform="translate(-37.71 -27.12)"/><path class="cls-4" d="M211.21,232.25V200.3H224.9a13.59,13.59,0,0,1,5.09.87,8.36,8.36,0,0,1,3.4,2.33,10,10,0,0,1,1.83,3.19,11.52,11.52,0,0,1,.59,3.7,10.18,10.18,0,0,1-2.76,7q-2.76,3.06-8.15,3.06h-7.53v11.77Zm14-17.62a3.91,3.91,0,0,0,3.2-1.25,4.51,4.51,0,0,0,1-3,4.65,4.65,0,0,0-1-3,3.89,3.89,0,0,0-3.25-1.28h-7.8v8.49Z" transform="translate(-37.71 -27.12)"/><path class="cls-4" d="M244.94,232.25V200.3h6.16v26h15.43v5.93Z" transform="translate(-37.71 -27.12)"/><path class="cls-4" d="M297.11,232.25l-2.46-6.61H282.32l-2.46,6.61h-6.62l12.23-31.95h6l12.23,31.95ZM292.64,220l-3.15-8.31a24.16,24.16,0,0,1-1-2.87,26.61,26.61,0,0,1-1,2.87L284.33,220Z" transform="translate(-37.71 -27.12)"/><path class="cls-4" d="M324.69,232.76a13.14,13.14,0,0,1-6.3-1.44,10.72,10.72,0,0,1-4.2-3.88,19,19,0,0,1-2.22-5.23,24,24,0,0,1-.7-5.93,22.09,22.09,0,0,1,.73-5.69,19.86,19.86,0,0,1,2.23-5.25,11.49,11.49,0,0,1,4.2-4,12.46,12.46,0,0,1,6.26-1.53,12.12,12.12,0,0,1,7.23,2.1A11.61,11.61,0,0,1,336.1,207l-5.52,2.51a10.31,10.31,0,0,0-2.6-2.87,5.67,5.67,0,0,0-3.29-.92,5.59,5.59,0,0,0-4.18,1.71,8.93,8.93,0,0,0-2.26,4,19.26,19.26,0,0,0-.59,4.86,14.72,14.72,0,0,0,1.8,7.35,5.7,5.7,0,0,0,5.23,3.19q3.33,0,5.8-4.11l5.65,2.15Q332.59,232.77,324.69,232.76Z" transform="translate(-37.71 -27.12)"/><path class="cls-4" d="M175,232.25V200.3H189.8q5.61,0,8.15,2.81a10.94,10.94,0,0,1,.91,12.73,8.61,8.61,0,0,1-4.59,3.68l6.21,12.73h-6.94l-6-11.91h-6.43v11.91Zm6.17-17.75h8.76a4,4,0,0,0,3.2-1.19,5,5,0,0,0,0-6,4,4,0,0,0-3.22-1.19h-8.76Z" transform="translate(-37.71 -27.12)"/><path class="cls-5" d="M366.35,228.59a15.36,15.36,0,0,0,1.76-2.89l.27-.6L362.67,223Z" transform="translate(-37.71 -27.12)"/><path class="cls-4" d="M369.84,219.32a27.59,27.59,0,0,0,.15-2.9,26.05,26.05,0,0,0-.43-4.8,18.39,18.39,0,0,0-1.45-4.47,15.14,15.14,0,0,0-2.51-3.79,10.73,10.73,0,0,0-3.81-2.6,14.21,14.21,0,0,0-10.27,0,10.56,10.56,0,0,0-3.81,2.6,15.51,15.51,0,0,0-2.54,3.79,18,18,0,0,0-1.47,4.47,27,27,0,0,0,0,9.6,18,18,0,0,0,1.47,4.48,15.7,15.7,0,0,0,2.54,3.79,10.54,10.54,0,0,0,3.81,2.59,14.08,14.08,0,0,0,10.27,0,10.71,10.71,0,0,0,3.81-2.59l.19-.22-3.61-5.53a6.65,6.65,0,0,1-2.15,2.35,6.26,6.26,0,0,1-7.67-.71,9,9,0,0,1-2.38-4,15,15,0,0,1-.43-2.06h20.29Zm-20.12-6.55a15.25,15.25,0,0,1,1.19-3.4,6.59,6.59,0,0,1,2.3-2.61,6.52,6.52,0,0,1,6.86,0,6.59,6.59,0,0,1,2.28,2.55,14.27,14.27,0,0,1,1.19,3.38c.06.28.09.58.14.87H349.6C349.64,213.28,349.67,213,349.72,212.77Z" transform="translate(-37.71 -27.12)"/><path class="cls-1" d="M272.34,198.72" transform="translate(-37.71 -27.12)"/></svg>