<svg xmlns="http://www.w3.org/2000/svg" xmlns:xlink="http://www.w3.org/1999/xlink" viewBox="0 0 18.26 25.55"><defs><style>.cls-1{fill:url(#Degradado_sin_nombre_10);}</style><linearGradient id="Degradado_sin_nombre_10" y1="12.77" x2="18.26" y2="12.77" gradientUnits="userSpaceOnUse"><stop offset="0.01" stop-color="#5bd2ee"/><stop offset="0.78" stop-color="#45ab95"/></linearGradient></defs><g id="Layer_2" data-name="Layer 2"><g id="Texto"><path class="cls-1" d="M18.2,9.92a5.16,5.16,0,0,0,.06-.79A9.13,9.13,0,0,0,0,9.13a5.16,5.16,0,0,0,.06.79,9.1,9.1,0,0,0,4.78,7.24,10.35,10.35,0,0,1,1.47,2.37L8.4,24.72c.45,1.11,1.16,1.1,1.6,0l2-5.18a10,10,0,0,1,1.46-2.38A9.11,9.11,0,0,0,18.2,9.92ZM9.13,3.26A5.87,5.87,0,1,1,3.26,9.13,5.87,5.87,0,0,1,9.13,3.26Z"/></g></g></svg>