<svg xmlns="http://www.w3.org/2000/svg" xmlns:xlink="http://www.w3.org/1999/xlink" viewBox="0 0 19.03 19.03"><defs><style>.cls-1{fill:url(#Degradado_sin_nombre_10);}.cls-2{fill:url(#Degradado_sin_nombre_10-2);}.cls-3{fill:url(#Degradado_sin_nombre_10-3);}</style><linearGradient id="Degradado_sin_nombre_10" x1="9.51" x2="9.51" y2="19.03" gradientUnits="userSpaceOnUse"><stop offset="0.01" stop-color="#5bd2ee"/><stop offset="0.78" stop-color="#45ab95"/></linearGradient><linearGradient id="Degradado_sin_nombre_10-2" x1="9.52" y1="4.63" x2="9.52" y2="14.41" xlink:href="#Degradado_sin_nombre_10"/><linearGradient id="Degradado_sin_nombre_10-3" x1="14.6" y1="3.29" x2="14.6" y2="5.58" xlink:href="#Degradado_sin_nombre_10"/></defs><g id="Layer_2" data-name="Layer 2"><g id="Texto"><path class="cls-1" d="M19,5.6a6.9,6.9,0,0,0-.44-2.31,4.67,4.67,0,0,0-1.1-1.69A4.75,4.75,0,0,0,15.75.5,6.9,6.9,0,0,0,13.44.06C12.43,0,12.1,0,9.52,0S6.61,0,5.6.06A6.66,6.66,0,0,0,3.29.5,4.54,4.54,0,0,0,1.6,1.6,4.71,4.71,0,0,0,.5,3.28,7,7,0,0,0,.06,5.59C0,6.61,0,6.93,0,9.52s0,2.91.06,3.92A6.71,6.71,0,0,0,.5,15.75a4.75,4.75,0,0,0,1.1,1.69,4.56,4.56,0,0,0,1.68,1.09A7,7,0,0,0,5.59,19c1,0,1.34.05,3.92.05s2.91,0,3.93-.05a7,7,0,0,0,2.31-.45,4.82,4.82,0,0,0,2.78-2.78A6.76,6.76,0,0,0,19,13.44c.05-1,.06-1.34.06-3.92S19,6.61,19,5.6Zm-1.71,7.77a5.1,5.1,0,0,1-.33,1.76,3.16,3.16,0,0,1-1.81,1.81,5.16,5.16,0,0,1-1.76.33c-1,0-1.31.05-3.85.05s-2.84,0-3.84-.05a5.23,5.23,0,0,1-1.77-.33,2.82,2.82,0,0,1-1.09-.71,2.9,2.9,0,0,1-.71-1.09,5.23,5.23,0,0,1-.33-1.77c0-1-.05-1.3-.05-3.84s0-2.85.05-3.85a5.1,5.1,0,0,1,.33-1.76,2.86,2.86,0,0,1,.71-1.1,3,3,0,0,1,1.1-.71,5.42,5.42,0,0,1,1.76-.33c1,0,1.31-.05,3.85-.05s2.84,0,3.84.05a5.5,5.5,0,0,1,1.77.33,3,3,0,0,1,1.09.71,2.86,2.86,0,0,1,.71,1.1,5.16,5.16,0,0,1,.33,1.76c0,1,.05,1.31.05,3.85S17.31,12.36,17.27,13.37Z"/><path class="cls-2" d="M9.52,4.63a4.89,4.89,0,1,0,4.89,4.89A4.89,4.89,0,0,0,9.52,4.63Zm0,8.06a3.17,3.17,0,1,1,3.17-3.17A3.17,3.17,0,0,1,9.52,12.69Z"/><path class="cls-3" d="M15.74,4.44A1.14,1.14,0,1,1,14.6,3.29,1.14,1.14,0,0,1,15.74,4.44Z"/></g></g></svg>