<svg xmlns="http://www.w3.org/2000/svg" xmlns:xlink="http://www.w3.org/1999/xlink" viewBox="0 0 9.11 16.01"><defs><style>.cls-1{fill:#7b8289;}.cls-2{fill:url(#Degradado_sin_nombre_10);}</style><linearGradient id="Degradado_sin_nombre_10" x1="-179.44" y1="57.33" x2="-179.44" y2="46.08" gradientTransform="translate(-174.89 59.34) rotate(180)" gradientUnits="userSpaceOnUse"><stop offset="0.01" stop-color="#5bd2ee"/><stop offset="0.78" stop-color="#45ab95"/></linearGradient></defs><g id="Layer_2" data-name="Layer 2"><g id="Texto"><path class="cls-1" d="M1,0H8.13a1,1,0,0,1,1,1V15a1,1,0,0,1-1,1H1a1,1,0,0,1-1-1V1A1,1,0,0,1,1,0Z"/><rect class="cls-2" x="0.92" y="2.01" width="7.27" height="11.26" rx="0.91"/><path class="cls-1" d="M4.8.88A.25.25,0,1,1,4.56.64.25.25,0,0,1,4.8.88Z"/><path class="cls-1" d="M6.88,14.43c0,.11-.44.2-1,.2H3.22c-.54,0-1-.09-1-.2s.45-.2,1-.2H5.9C6.44,14.23,6.88,14.32,6.88,14.43Z"/></g></g></svg>