<svg xmlns="http://www.w3.org/2000/svg" viewBox="0 0 25 25"><style type="text/css">.st0{fill-rule:evenodd;clip-rule:evenodd;fill:#232F3B;}.st1{opacity:0.4;fill-rule:evenodd;clip-rule:evenodd;fill:#232F3B;}</style><path class="st0" d="M12.5,22c1.4-2.7,6.6-11.2,6.6-14.1c0-3.6-3-6.6-6.6-6.6c-3.6,0-6.6,3-6.6,6.6C5.9,10.8,11.1,19.3,12.5,22zM12.5,5.4c1.3,0,2.4,1.1,2.4,2.4s-1.1,2.4-2.4,2.4s-2.4-1.1-2.4-2.4S11.1,5.4,12.5,5.4z"/><path class="st1" d="M13.2,21.2c1.6,0.1,4.9,0.3,4.9,1.3c0,1.1-4.7,1.3-5.6,1.3c-0.8,0-5.6-0.2-5.6-1.3c0-1,3.3-1.2,4.9-1.3c0.2,0.4,0.4,0.8,0.7,1.3C12.7,22,12.9,21.6,13.2,21.2z"/></svg>
