<svg xmlns="http://www.w3.org/2000/svg" viewBox="0 0 40.52 31.74"><defs><style>.cls-1{fill:#fff;}</style></defs><g id="Layer_2" data-name="Layer 2"><g id="Texto"><path class="cls-1" d="M40.12,27.66c-3,6.16-5.64,3.78-11.49,2.83-1.11.24-1.2-2.82-1.53-3.36l-.44-.25c-3.89,1.08-3.47,1.43-4.43-2.54l-.41-.23c-3.61,1-3.48,1.47-4.33-2.39a16.75,16.75,0,0,0,3.87-4C21.57,17.5,37.5,29,34.65,24.47l-12.5-8.3a12.79,12.79,0,0,0,.78-2.36.85.85,0,0,1,.69.12L39.44,24.29A2.44,2.44,0,0,1,40.12,27.66ZM12.89,21.89c-14,3-18.32-19.06-4.26-21.62C22.61-2.69,27,19.33,12.89,21.89ZM10.17,7.45C9.27,2.48,1.5,4,2.54,9S11.22,12.38,10.17,7.45Z"/></g></g></svg>