<svg xmlns="http://www.w3.org/2000/svg" viewBox="0 0 36.9 36.09"><defs><style>.cls-1{fill:#fff;fill-rule:evenodd;}</style></defs><g id="Layer_2" data-name="Layer 2"><g id="Texto"><path class="cls-1" d="M4.79,17.62V34.79a1.3,1.3,0,0,0,1.27,1.3H30.85a1.3,1.3,0,0,0,1.26-1.3V17.62h3v0a2,2,0,0,0,1.3-.73A2.08,2.08,0,0,0,36.17,14L19.76.47A2,2,0,0,0,18.46,0h0a1.92,1.92,0,0,0-1.31.47L11.48,5.13V1.6a.59.59,0,0,0-.59-.6H7.05a.6.6,0,0,0-.59.6V9.27L.73,14a2.08,2.08,0,0,0-.28,2.88,2,2,0,0,0,1.3.73v0h3Zm18.77-2H25.4c.32,0,.41.28.18.59l-11.67,16a1.44,1.44,0,0,1-1,.58H11.09c-.32,0-.41-.26-.18-.58l11.67-16a1.42,1.42,0,0,1,1-.59Zm-14,3.79A3.84,3.84,0,0,1,9.9,17.9a4.33,4.33,0,0,1,.85-1.28A4.13,4.13,0,0,1,12,15.76a4,4,0,0,1,3.12,0,4,4,0,0,1,2.14,2.14,3.83,3.83,0,0,1,.31,1.55A3.93,3.93,0,0,1,17.28,21a4,4,0,0,1-.86,1.26,4.18,4.18,0,0,1-1.28.86,4,4,0,0,1-3.12,0A4,4,0,0,1,9.9,21a3.93,3.93,0,0,1-.32-1.57Zm2.4,0a2.12,2.12,0,0,0,.43,1.5,1.59,1.59,0,0,0,1.18.44,1.83,1.83,0,0,0,.61-.11,1.4,1.4,0,0,0,.51-.33,1.83,1.83,0,0,0,.35-.6,3,3,0,0,0,.12-.9,2.93,2.93,0,0,0-.12-.9,1.83,1.83,0,0,0-.35-.6,1.4,1.4,0,0,0-.51-.33,1.83,1.83,0,0,0-.61-.11,1.59,1.59,0,0,0-1.18.44,2.12,2.12,0,0,0-.43,1.5Zm7.17,9.69a3.71,3.71,0,0,1,.32-1.55,4.1,4.1,0,0,1,.85-1.27,4.16,4.16,0,0,1,1.27-.87,4.08,4.08,0,0,1,3.12,0,4.16,4.16,0,0,1,1.27.87,4,4,0,0,1,.86,1.27,4,4,0,0,1,0,3.12A3.86,3.86,0,0,1,26,32a4.31,4.31,0,0,1-1.27.86,4.08,4.08,0,0,1-3.12,0A4.31,4.31,0,0,1,20.32,32a4,4,0,0,1-.85-1.27,3.74,3.74,0,0,1-.32-1.57Zm2.4,0a2.08,2.08,0,0,0,.43,1.5,1.52,1.52,0,0,0,1.17.44,1.77,1.77,0,0,0,.61-.1,1.39,1.39,0,0,0,.51-.34,1.47,1.47,0,0,0,.35-.6,2.6,2.6,0,0,0,.13-.9,2.67,2.67,0,0,0-.13-.9,1.5,1.5,0,0,0-.35-.59,1.27,1.27,0,0,0-.51-.34,1.77,1.77,0,0,0-.61-.1,1.52,1.52,0,0,0-1.17.44,2.07,2.07,0,0,0-.43,1.49Z"/></g></g></svg>