<svg xmlns="http://www.w3.org/2000/svg" xmlns:xlink="http://www.w3.org/1999/xlink" viewBox="0 0 35.63 35.74"><defs><style>.cls-1{fill:url(#Degradado_sin_nombre_10);}</style><linearGradient id="Degradado_sin_nombre_10" x1="17.82" x2="17.82" y2="35.74" gradientUnits="userSpaceOnUse"><stop offset="0.01" stop-color="#5bd2ee"/><stop offset="0.78" stop-color="#45ab95"/></linearGradient></defs><g id="Layer_2" data-name="Layer 2"><g id="Texto"><path class="cls-1" d="M11.14,21.33l3.06,2.26c4.24,3.15,4.58,2.36,9.58,2.66,1.11.07,1.83,1.85,0,2.56a12,12,0,0,1-9,0c-.48,0-2.21-1.58-2.8-1s-.13,1,.54,1.34l2.07,1.15c2.47.74,7.55,1.18,10.19-.63l7.76-5.31c1.42-1,1.78-1.25,2.94-.11.61.62-.79,2.2-1.21,2.48L22.89,34.37c-2.1,1.41-6,1.66-7,1.09l-7-3.57a2.69,2.69,0,0,0-3,.32L4.13,33.32c-.42.27-4.56-8.79-4.09-9l7.44-3a4.37,4.37,0,0,1,3.66,0Zm24-9.64L21.11.22A1,1,0,0,0,20.39,0a1,1,0,0,0-.72.22l-14,11.47a.82.82,0,0,0-.08,1.23l1.69,1.74a1,1,0,0,0,1.34.07L20.39,5.09l11.8,9.64a1,1,0,0,0,1.34-.07l1.69-1.74a.83.83,0,0,0-.08-1.23ZM14.73.38H10.62V6l4.11-3.36V.38ZM9.6,15.78v3.64a5.7,5.7,0,0,1,.58.06A6.59,6.59,0,0,1,13,20.61c1.46,1,2.5,1.74,3.29,2.32.38.29.7.52,1,.71V17.46h6.42v7.28l.27,0c1.59.09,2.23.81,2.26,2l5.08-3.48V15.78L22.09,8.14a2.31,2.31,0,0,0-1.67-.5,2.31,2.31,0,0,0-1.67.5L9.6,15.78Z"/></g></g></svg>